<svg data-v-423bf9ae="" xmlns="http://www.w3.org/2000/svg" viewBox="0 0 497 90" class="iconLeft"><!----><!----><!----><g data-v-423bf9ae="" id="9ad53ca8-3a56-4dee-9d26-ce6f39c80a91" fill="#7DE38D" transform="matrix(5.628517904206723,0,0,5.628517904206723,123.87852016586254,15.056285411199994)"><path d="M5.04 1.20L5.04 1.20L5.04 1.20Q5.53 1.20 5.98 1.28L5.98 1.28L5.98 1.28Q6.43 1.36 6.76 1.44L6.76 1.44L6.76 1.44Q7.15 1.54 7.48 1.67L7.48 1.67L7.48 3.18L7.48 3.18Q6.94 3.01 6.38 2.90L6.38 2.90L6.38 2.90Q5.82 2.79 5.30 2.79L5.30 2.79L5.30 2.79Q4.77 2.79 4.30 2.94L4.30 2.94L4.30 2.94Q3.82 3.09 3.47 3.46L3.47 3.46L3.47 3.46Q3.12 3.82 2.91 4.42L2.91 4.42L2.91 4.42Q2.70 5.01 2.70 5.92L2.70 5.92L2.70 5.92Q2.70 7.28 3.15 7.99L3.15 7.99L3.15 7.99Q3.60 8.69 4.29 8.94L4.29 8.94L4.29 8.94Q4.98 9.18 5.83 9.07L5.83 9.07L5.83 9.07Q6.68 8.96 7.48 8.69L7.48 8.69L7.48 10.15L7.48 10.15Q7.14 10.29 6.75 10.40L6.75 10.40L6.75 10.40Q6.41 10.50 5.97 10.58L5.97 10.58L5.97 10.58Q5.53 10.65 5.04 10.65L5.04 10.65L5.04 10.65Q4.59 10.65 4.09 10.57L4.09 10.57L4.09 10.57Q3.58 10.49 3.10 10.28L3.10 10.28L3.10 10.28Q2.62 10.08 2.18 9.73L2.18 9.73L2.18 9.73Q1.74 9.38 1.39 8.86L1.39 8.86L1.39 8.86Q1.05 8.33 0.85 7.60L0.85 7.60L0.85 7.60Q0.66 6.87 0.66 5.92L0.66 5.92L0.66 5.92Q0.66 4.97 0.85 4.25L0.85 4.25L0.85 4.25Q1.05 3.53 1.39 3.00L1.39 3.00L1.39 3.00Q1.74 2.48 2.18 2.13L2.18 2.13L2.18 2.13Q2.62 1.79 3.10 1.58L3.10 1.58L3.10 1.58Q3.58 1.37 4.09 1.29L4.09 1.29L4.09 1.29Q4.59 1.20 5.04 1.20ZM11.51 3.12L11.51 3.12L11.51 3.12Q11.97 3.12 12.50 3.27L12.50 3.27L12.50 3.27Q13.03 3.42 13.50 3.75L13.50 3.75L13.50 3.75Q13.96 4.07 14.25 4.59L14.25 4.59L14.25 4.59Q14.55 5.11 14.53 5.85L14.53 5.85L14.53 10.50L13.16 10.50L13.16 10.50Q13.16 10.50 13.12 10.33L13.12 10.33L13.12 10.33Q13.08 10.16 13.03 9.95L13.03 9.95L13.03 9.95Q12.98 9.74 12.94 9.58L12.94 9.58L12.94 9.58Q12.89 9.42 12.89 9.44L12.89 9.44L12.89 9.44Q12.70 9.79 12.38 10.05L12.38 10.05L12.38 10.05Q12.10 10.29 11.65 10.47L11.65 10.47L11.65 10.47Q11.21 10.65 10.57 10.65L10.57 10.65L10.57 10.65Q10.12 10.65 9.69 10.52L9.69 10.52L9.69 10.52Q9.25 10.39 8.91 10.13L8.91 10.13L8.91 10.13Q8.57 9.87 8.35 9.48L8.35 9.48L8.35 9.48Q8.13 9.09 8.12 8.57L8.12 8.57L8.12 8.57Q8.09 8.02 8.27 7.59L8.27 7.59L8.27 7.59Q8.44 7.17 8.77 6.86L8.77 6.86L8.77 6.86Q9.10 6.55 9.56 6.36L9.56 6.36L9.56 6.36Q10.02 6.17 10.57 6.10L10.57 6.10L10.57 6.10Q11.09 6.03 11.70 6.03L11.70 6.03L11.70 6.03Q12.32 6.03 12.81 6.06L12.81 6.06L12.81 5.84L12.81 5.84Q12.81 5.24 12.54 4.93L12.54 4.93L12.54 4.93Q12.28 4.63 11.88 4.54L11.88 4.54L11.88 4.54Q11.48 4.45 11.00 4.52L11.00 4.52L11.00 4.52Q10.53 4.59 10.09 4.72L10.09 4.72L10.09 4.72Q9.66 4.86 9.33 5.00L9.33 5.00L9.33 5.00Q9.00 5.15 8.92 5.22L8.92 5.22L8.92 3.81L8.92 3.81Q8.93 3.79 9.17 3.69L9.17 3.69L9.17 3.69Q9.41 3.58 9.77 3.46L9.77 3.46L9.77 3.46Q10.14 3.33 10.59 3.23L10.59 3.23L10.59 3.23Q11.05 3.12 11.51 3.12ZM12.40 8.68L12.40 8.68L12.40 8.68Q12.64 8.37 12.72 7.99L12.72 7.99L12.72 7.99Q12.80 7.62 12.80 7.20L12.80 7.20L11.98 7.20L11.98 7.20Q11.66 7.20 11.30 7.24L11.30 7.24L11.30 7.24Q10.93 7.28 10.63 7.41L10.63 7.41L10.63 7.41Q10.32 7.53 10.11 7.78L10.11 7.78L10.11 7.78Q9.90 8.02 9.90 8.44L9.90 8.44L9.90 8.44Q9.90 8.90 10.24 9.11L10.24 9.11L10.24 9.11Q10.58 9.32 11.09 9.32L11.09 9.32L11.09 9.32Q11.52 9.32 11.85 9.15L11.85 9.15L11.85 9.15Q12.18 8.97 12.40 8.68ZM20.72 3.18L20.72 5.10L20.72 5.10Q20.40 5.03 20.14 5.02L20.14 5.02L20.14 5.02Q19.88 5.01 19.66 5.03L19.66 5.03L19.66 5.03Q19.21 5.05 18.92 5.22L18.92 5.22L18.92 5.22Q18.63 5.39 18.48 5.66L18.48 5.66L18.48 5.66Q18.33 5.94 18.27 6.28L18.27 6.28L18.27 6.28Q18.21 6.62 18.21 6.99L18.21 6.99L18.21 10.50L16.32 10.50L16.32 3.36L17.71 3.36L18.00 4.93L18.00 4.93Q18.00 4.93 18.04 4.77L18.04 4.77L18.04 4.77Q18.07 4.61 18.18 4.38L18.18 4.38L18.18 4.38Q18.28 4.14 18.48 3.88L18.48 3.88L18.48 3.88Q18.68 3.63 18.98 3.43L18.98 3.43L18.98 3.43Q19.28 3.23 19.70 3.15L19.70 3.15L19.70 3.15Q20.13 3.07 20.72 3.18L20.72 3.18ZM27.90 6.55L27.90 10.50L25.94 10.50L25.94 1.36L31.46 1.36L31.16 2.91L27.90 2.91L27.90 5.00L31.16 5.00L31.16 6.55L27.90 6.55ZM34.87 10.50L32.98 10.50L32.98 3.29L34.87 3.29L34.87 10.50ZM34.97 1.02L34.97 1.02L34.97 1.02Q34.97 1.47 34.66 1.78L34.66 1.78L34.66 1.78Q34.36 2.09 33.92 2.09L33.92 2.09L33.92 2.09Q33.47 2.09 33.17 1.78L33.17 1.78L33.17 1.78Q32.86 1.47 32.86 1.02L32.86 1.02L32.86 1.02Q32.86 0.59 33.17 0.29L33.17 0.29L33.17 0.29Q33.47-0.01 33.92-0.01L33.92-0.01L33.92-0.01Q34.36-0.01 34.66 0.29L34.66 0.29L34.66 0.29Q34.97 0.59 34.97 1.02ZM41.17 3.12L41.17 3.12L41.17 3.12Q41.82 3.12 42.28 3.34L42.28 3.34L42.28 3.34Q42.74 3.56 43.04 3.93L43.04 3.93L43.04 3.93Q43.34 4.31 43.48 4.83L43.48 4.83L43.48 4.83Q43.62 5.35 43.62 5.95L43.62 5.95L43.62 10.50L41.75 10.50L41.75 6.58L41.75 6.58Q41.75 5.54 41.47 5.05L41.47 5.05L41.47 5.05Q41.19 4.56 40.50 4.56L40.50 4.56L40.50 4.56Q39.68 4.56 39.28 5.25L39.28 5.25L39.28 5.25Q38.88 5.94 38.88 7.06L38.88 7.06L38.88 10.50L37.00 10.50L37.00 3.29L38.40 3.29L38.78 4.27L38.78 4.27Q38.92 4.12 39.09 3.91L39.09 3.91L39.09 3.91Q39.26 3.71 39.52 3.54L39.52 3.54L39.52 3.54Q39.77 3.36 40.17 3.24L40.17 3.24L40.17 3.24Q40.57 3.12 41.17 3.12ZM47.95 3.12L47.95 3.12L47.95 3.12Q48.48 3.12 48.90 3.30L48.90 3.30L48.90 3.30Q49.31 3.47 49.59 3.67L49.59 3.67L49.59 3.67Q49.91 3.92 50.15 4.21L50.15 4.21L50.15 1.55L52.02 1.55L52.02 10.50L50.57 10.50L50.20 9.53L50.20 9.53Q49.99 9.84 49.67 10.09L49.67 10.09L49.67 10.09Q49.39 10.30 48.97 10.48L48.97 10.48L48.97 10.48Q48.54 10.65 47.95 10.65L47.95 10.65L47.95 10.65Q47.12 10.65 46.55 10.35L46.55 10.35L46.55 10.35Q45.98 10.05 45.62 9.55L45.62 9.55L45.62 9.55Q45.26 9.04 45.10 8.37L45.10 8.37L45.10 8.37Q44.94 7.69 44.94 6.93L44.94 6.93L44.94 6.93Q44.94 6.17 45.10 5.49L45.10 5.49L45.10 5.49Q45.26 4.80 45.62 4.28L45.62 4.28L45.62 4.28Q45.98 3.75 46.55 3.44L46.55 3.44L46.55 3.44Q47.12 3.12 47.95 3.12ZM48.54 9.18L48.54 9.18L48.54 9.18Q49.21 9.18 49.68 8.64L49.68 8.64L49.68 8.64Q50.15 8.09 50.15 6.93L50.15 6.93L50.15 6.93Q50.15 5.78 49.68 5.18L49.68 5.18L49.68 5.18Q49.21 4.58 48.54 4.58L48.54 4.58L48.54 4.58Q48.20 4.58 47.91 4.73L47.91 4.73L47.91 4.73Q47.61 4.89 47.40 5.18L47.40 5.18L47.40 5.18Q47.18 5.47 47.05 5.92L47.05 5.92L47.05 5.92Q46.91 6.36 46.91 6.93L46.91 6.93L46.91 6.93Q46.91 7.50 47.05 7.93L47.05 7.93L47.05 7.93Q47.18 8.36 47.40 8.64L47.40 8.64L47.40 8.64Q47.61 8.92 47.91 9.05L47.91 9.05L47.91 9.05Q48.20 9.18 48.54 9.18ZM57.44 10.65L57.44 10.65L57.44 10.65Q56.28 10.65 55.52 10.35L55.52 10.35L55.52 10.35Q54.77 10.04 54.31 9.52L54.31 9.52L54.31 9.52Q53.86 9.00 53.68 8.32L53.68 8.32L53.68 8.32Q53.49 7.64 53.49 6.89L53.49 6.89L53.49 6.89Q53.49 6.22 53.68 5.54L53.68 5.54L53.68 5.54Q53.86 4.87 54.26 4.33L54.26 4.33L54.26 4.33Q54.66 3.79 55.30 3.46L55.30 3.46L55.30 3.46Q55.94 3.12 56.87 3.12L56.87 3.12L56.87 3.12Q57.85 3.12 58.50 3.46L58.50 3.46L58.50 3.46Q59.15 3.79 59.54 4.33L59.54 4.33L59.54 4.33Q59.93 4.87 60.09 5.54L60.09 5.54L60.09 5.54Q60.26 6.22 60.26 6.89L60.26 6.89L60.26 7.52L55.30 7.52L55.30 7.52Q55.30 8.27 55.84 8.76L55.84 8.76L55.84 8.76Q56.38 9.25 57.32 9.25L57.32 9.25L57.32 9.25Q57.85 9.25 58.30 9.14L58.30 9.14L58.30 9.14Q58.74 9.03 59.07 8.89L59.07 8.89L59.07 8.89Q59.43 8.74 59.74 8.53L59.74 8.53L59.74 10.09L59.74 10.09Q59.74 10.11 59.56 10.19L59.56 10.19L59.56 10.19Q59.37 10.28 59.07 10.38L59.07 10.38L59.07 10.38Q58.76 10.49 58.34 10.57L58.34 10.57L58.34 10.57Q57.92 10.65 57.44 10.65ZM55.30 6.19L58.48 6.19L58.48 6.19Q58.48 5.95 58.41 5.66L58.41 5.66L58.41 5.66Q58.35 5.38 58.18 5.12L58.18 5.12L58.18 5.12Q58.00 4.87 57.69 4.70L57.69 4.70L57.69 4.70Q57.37 4.54 56.87 4.54L56.87 4.54L56.87 4.54Q56.43 4.54 56.13 4.70L56.13 4.70L56.13 4.70Q55.83 4.87 55.65 5.12L55.65 5.12L55.65 5.12Q55.47 5.38 55.38 5.66L55.38 5.66L55.38 5.66Q55.30 5.95 55.30 6.19L55.30 6.19ZM66.16 3.18L66.16 5.10L66.16 5.10Q65.84 5.03 65.58 5.02L65.58 5.02L65.58 5.02Q65.32 5.01 65.10 5.03L65.10 5.03L65.10 5.03Q64.65 5.05 64.37 5.22L64.37 5.22L64.37 5.22Q64.08 5.39 63.92 5.66L63.92 5.66L63.92 5.66Q63.77 5.94 63.71 6.28L63.71 6.28L63.71 6.28Q63.66 6.62 63.66 6.99L63.66 6.99L63.66 10.50L61.77 10.50L61.77 3.36L63.15 3.36L63.45 4.93L63.45 4.93Q63.45 4.93 63.48 4.77L63.48 4.77L63.48 4.77Q63.52 4.61 63.62 4.38L63.62 4.38L63.62 4.38Q63.73 4.14 63.92 3.88L63.92 3.88L63.92 3.88Q64.12 3.63 64.42 3.43L64.42 3.43L64.42 3.43Q64.72 3.23 65.15 3.15L65.15 3.15L65.15 3.15Q65.58 3.07 66.16 3.18L66.16 3.18Z"></path></g><!----><g data-v-423bf9ae="" id="dc5ed95d-d6e2-4304-8e7a-7024c1bb28f2" transform="matrix(1.0759332036477358,0,0,1.0759332036477358,0.2033326227119545,0)" stroke="none" fill="#7DE38D"><path d="M90.925 28.696L82.728 7.529C81.195 3.477 77.845.029 71.505 0H28.427c-6.311.029-9.661 3.477-11.222 7.529L9.006 28.696C5.751 29.116-.01 32.941 0 40.187v26.951h7.999v8.603c-.02 10.606 14.989 10.48 14.985 0v-8.603h53.964v8.603c.033 10.48 15.042 10.606 15.052 0v-8.603h8V40.187c-.025-7.246-5.79-11.071-9.075-11.491zM15.727 50.874c-3.834.011-6.938-3.187-6.922-7.12-.016-3.96 3.088-7.161 6.922-7.128 3.822-.033 6.926 3.168 6.921 7.128.005 3.933-3.1 7.13-6.921 7.12zM50 28.497H17.541l6.182-16.668c.746-2.366 1.904-4.059 4.639-4.1H71.64c2.693.041 3.854 1.733 4.636 4.1l6.183 16.668H50zm34.274 22.377c-3.861.011-6.967-3.187-6.988-7.12.021-3.96 3.127-7.161 6.988-7.128 3.795-.033 6.898 3.168 6.922 7.128-.024 3.933-3.127 7.13-6.922 7.12z"></path></g><!----></svg>